HIERARCHY
ROOT Hips
{
	OFFSET -0.179506 -22.333345 2.821913
	CHANNELS 6 Xposition Yposition Zposition Zrotation Yrotation Xrotation 
	JOINT LeftUpLeg
	{
		OFFSET 6.951974 -9.140623 -0.681533
		CHANNELS 3 Zrotation Yrotation Xrotation
		JOINT LeftLeg
		{
			OFFSET 3.427654 -37.519855 -0.449580
			CHANNELS 3 Zrotation Yrotation Xrotation
			JOINT LeftFoot
			{
				OFFSET -1.359570 -39.796059 -4.369333
				CHANNELS 3 Zrotation Yrotation Xrotation
				JOINT LeftToe
				{
					OFFSET 2.635814 -5.579078 11.928840
					CHANNELS 3 Zrotation Yrotation Xrotation
					End Site
					{
						OFFSET 0.000000 0.000000 0.000000
					}
				}
			}
		}
	}
	JOINT RightUpLeg
	{
		OFFSET -6.767048 -9.052170 -0.431982
		CHANNELS 3 Zrotation Yrotation Xrotation
		JOINT RightLeg
		{
			OFFSET -3.829005 -38.256897 -0.885003
			CHANNELS 3 Zrotation Yrotation Xrotation
			JOINT RightFoot
			{
				OFFSET 1.577377 -39.841461 -4.231180
				CHANNELS 3 Zrotation Yrotation Xrotation
				JOINT RightToe
				{
					OFFSET -2.537174 -4.814398 12.334795
					CHANNELS 3 Zrotation Yrotation Xrotation
					End Site
					{
						OFFSET 0.000000 0.000000 0.000000
					}
				}
			}
		}
	}
	JOINT Spine
	{
		OFFSET -0.253288 10.896323 -2.669631
		CHANNELS 3 Zrotation Yrotation Xrotation
		JOINT Spine1
		{
			OFFSET 0.548704 13.518043 0.109247
			CHANNELS 3 Zrotation Yrotation Xrotation
			JOINT Spine2
			{
				OFFSET 0.145701 5.292222 2.542457
				CHANNELS 3 Zrotation Yrotation Xrotation
				JOINT Neck
				{
					OFFSET -0.277840 21.387037 -4.285703
					CHANNELS 3 Zrotation Yrotation Xrotation
					JOINT Head
					{
						OFFSET 0.515184 6.496960 5.134897
						CHANNELS 3 Zrotation Yrotation Xrotation
						End Site
						{
							OFFSET 0.000000 0.000000 0.000000
						}
					}
				}
				JOINT LeftShoulder
				{
					OFFSET 7.884473 12.174932 -3.408961
					CHANNELS 3 Zrotation Yrotation Xrotation
					JOINT LeftArm
					{
						OFFSET 9.097692 3.046888 -0.886815
						CHANNELS 3 Zrotation Yrotation Xrotation
						JOINT LeftForeArm
						{
							OFFSET 25.961220 -1.277207 -2.745643
							CHANNELS 3 Zrotation Yrotation Xrotation
							JOINT LeftHand
							{
								OFFSET 24.923361 0.898606 -0.117091
								CHANNELS 3 Zrotation Yrotation Xrotation
								End Site
								{
									OFFSET 0.000000 0.000000 0.000000
								}
							}
						}
					}
				}
				JOINT RightShoulder
				{
					OFFSET -8.175920 11.883285 -3.861528
					CHANNELS 3 Zrotation Yrotation Xrotation
					JOINT RightArm
					{
						OFFSET -9.601238 3.255117 -0.914307
						CHANNELS 3 Zrotation Yrotation Xrotation
						JOINT RightForeArm
						{
							OFFSET -25.374195 -1.332924 -2.140099
							CHANNELS 3 Zrotation Yrotation Xrotation
							JOINT RightHand
							{
								OFFSET -25.529810 0.777228 -0.555919
								CHANNELS 3 Zrotation Yrotation Xrotation
								End Site
								{
									OFFSET 0.000000 0.000000 0.000000
								}
							}
						}
					}
				}
			}
		}
	}
}
MOTION
Frames: 7
Frame Time: 0.033333
186.903687 -196.228348 88.860413 -119.592257 -1.375258 92.768842 -1.584144 0.528590 -0.629277 -3.171142 0.267738 -0.103599 5.745420 13.962021 -12.593173 nan nan nan -4.090313 -4.357719 -4.994993 3.273555 -7.901635 3.046142 5.018987 -8.858977 17.379983 nan nan nan -3.181219 0.907049 -5.288715 4.458892 -4.612527 7.229716 -0.991469 -0.475326 -5.352901 0.349137 -6.082086 3.259473 3.046514 0.616334 6.942477 -27.041719 3.010007 2.180018 -52.533074 -0.852815 21.725463 38.902687 -74.667706 -28.197889 14.645765 -16.502678 -22.512064 23.172567 -0.430212 -0.828161 54.744194 -3.343641 14.693531 -37.108457 79.357079 -36.342011 -14.686166 14.177586 -28.655257 
186.920334 -196.278305 88.823074 -119.524003 -1.316638 93.031833 -1.521729 0.467385 -1.064249 -3.216554 0.237157 0.103214 5.612027 14.012314 -12.624630 nan nan nan -4.001988 -4.374372 -5.376236 3.119045 -8.162915 3.094126 4.948167 -9.098152 16.893462 nan nan nan -3.008704 0.856410 -5.522997 4.376296 -4.590504 7.031494 -1.003260 -0.457238 -5.169015 0.479568 -5.954172 3.057785 2.964229 0.920097 7.530732 -27.031268 2.927857 2.262883 -52.528366 -0.776169 21.671195 39.853147 -74.841371 -28.649820 15.072251 -16.477249 -22.602193 23.023904 -0.424461 -0.726159 55.008381 -3.321015 14.639612 -38.104095 79.341659 -36.894240 -15.187863 14.141481 -28.739694 
186.924927 -196.305954 88.811821 -119.457056 -1.286095 93.142139 -1.494799 0.418534 -1.279826 -3.231045 0.250446 0.241632 5.609154 14.027541 -12.614923 nan nan nan -3.970356 -4.363736 -5.543020 3.082002 -8.210429 3.147326 4.922290 -9.146438 16.826903 nan nan nan -2.958832 0.850172 -5.585493 4.371529 -4.593726 6.941983 -0.997939 -0.460751 -5.149522 0.510931 -5.879128 2.996317 2.896079 1.117696 7.897504 -27.058587 2.877255 2.317557 -52.514923 -0.756241 21.645474 40.478829 -74.888488 -29.120104 15.266971 -16.475807 -22.794156 22.991705 -0.433742 -0.698300 55.045520 -3.327481 14.651709 -38.534852 79.336241 -37.169999 -15.372005 14.114767 -28.787405 
186.898621 -196.315948 88.802444 -119.453819 -1.270689 93.156203 -1.509081 0.395473 -1.297859 -3.197612 0.244481 0.248735 5.624888 14.032088 -12.610540 nan nan nan -3.969600 -4.314762 -5.569798 3.081673 -8.143880 3.154942 4.953480 -9.128586 16.792335 nan nan nan -2.905174 0.852397 -5.598100 4.348824 -4.568121 6.883859 -1.028493 -0.452868 -5.119779 0.454792 -5.889074 3.009099 2.908387 1.152190 8.061671 -27.037788 2.882454 2.356084 -52.498121 -0.807305 21.633960 40.177981 -74.836817 -28.812910 15.212881 -16.428920 -22.831009 22.950605 -0.462604 -0.664943 55.101964 -3.299161 14.627131 -38.430148 79.356588 -37.091902 -15.322653 14.095555 -28.859736 
186.427200 -196.126526 88.792183 -120.882497 -1.326784 92.998557 -1.864924 0.623617 0.445481 -2.995638 0.424362 -1.842455 5.982504 14.752988 -12.092932 nan nan nan -4.275980 -3.838434 -4.973014 3.368558 -7.615723 2.648866 5.366386 -8.521506 17.880392 nan nan nan -3.016235 1.334993 -6.898119 4.584361 -4.167403 7.957244 -1.119932 0.134788 -5.099428 -0.438775 -6.551589 3.656632 3.506291 1.784895 8.034193 -27.166749 2.660494 3.097284 -53.632577 -0.880651 23.088086 27.622129 -75.645734 -24.915524 12.989852 -17.906811 -36.055730 22.804284 -0.682440 -0.329084 54.578930 -3.209377 13.908575 -34.451093 80.010125 -35.576731 -13.557576 14.347884 -28.155497 
186.457306 -196.334000 89.002831 -119.885983 -0.479223 92.133570 -0.876694 1.288546 0.835473 -3.140705 -1.648047 -1.093240 5.554817 15.055893 -12.062303 nan nan nan -3.963039 -3.275611 -2.769635 5.909299 -3.157237 0.859227 0.508389 -7.436148 -9.174706 nan nan nan -0.942809 1.250304 -5.038783 3.372662 -4.733678 7.217864 -0.630755 -0.111997 -5.382967 -1.675180 -7.314566 3.876643 4.010972 3.165491 8.216413 -28.059904 2.830697 3.819441 -53.254861 -1.839548 20.828875 23.133007 -75.729275 -22.836762 5.753309 -19.708223 -31.875763 22.017202 -0.644638 0.136756 54.957293 -2.860974 12.576661 -19.200791 80.511658 -21.666794 3.403928 15.766841 -27.439873 
186.585251 -196.342148 88.949089 -120.005021 -0.601959 92.456530 -0.936910 2.038391 0.007775 -3.204472 -2.098725 -0.397406 5.300983 14.944892 -12.398900 nan nan nan -3.924679 -2.991679 -3.194593 5.655373 -2.794428 0.909640 0.895864 -8.226734 -9.126755 nan nan nan -1.089715 1.275287 -5.362776 3.490102 -4.653305 7.150562 -0.794709 -0.303942 -5.050588 -1.558906 -6.975231 3.400592 3.997377 3.155097 8.437463 -27.985297 3.008818 3.272669 -52.954872 -1.757015 22.050694 21.591514 -76.503193 -21.111294 13.587183 -16.496907 -37.107557 21.022066 -0.522910 0.093187 56.624506 -3.064361 15.553960 -22.639910 83.263934 -30.274915 -14.650616 10.244183 -42.208486 
